<?xml version="1.0" encoding="UTF-8" standalone="no"?>
<!-- Created with Inkscape (http://www.inkscape.org/) -->

<svg
   xmlns:dc="http://purl.org/dc/elements/1.1/"
   xmlns:cc="http://creativecommons.org/ns#"
   xmlns:rdf="http://www.w3.org/1999/02/22-rdf-syntax-ns#"
   xmlns:svg="http://www.w3.org/2000/svg"
   xmlns="http://www.w3.org/2000/svg"
   xmlns:sodipodi="http://sodipodi.sourceforge.net/DTD/sodipodi-0.dtd"
   xmlns:inkscape="http://www.inkscape.org/namespaces/inkscape"
   width="1200"
   height="675"
   id="svg2"
   version="1.1"
   inkscape:version="0.48.4 r9939"
   sodipodi:docname="background1.svg"
   inkscape:export-filename="background1.png"
   inkscape:export-xdpi="150"
   inkscape:export-ydpi="150">
  <defs
     id="defs4" />
  <sodipodi:namedview
     id="base"
     pagecolor="#ededed"
     bordercolor="#666666"
     borderopacity="1.0"
     inkscape:pageopacity="1"
     inkscape:pageshadow="2"
     inkscape:zoom="1"
     inkscape:cx="578.44779"
     inkscape:cy="341.25243"
     inkscape:document-units="px"
     inkscape:current-layer="layer1"
     showgrid="false"
     inkscape:window-width="1920"
     inkscape:window-height="1017"
     inkscape:window-x="-4"
     inkscape:window-y="-4"
     inkscape:window-maximized="1"
     fit-margin-top="0"
     fit-margin-left="0"
     fit-margin-right="0"
     fit-margin-bottom="0"
     inkscape:showpageshadow="false" />
  <metadata
     id="metadata7">
    <rdf:RDF>
      <cc:Work
         rdf:about="">
        <dc:format>image/svg+xml</dc:format>
        <dc:type
           rdf:resource="http://purl.org/dc/dcmitype/StillImage" />
        <dc:title></dc:title>
        <dc:creator>
          <cc:Agent>
            <dc:title>Steven Van Vaerenbergh</dc:title>
          </cc:Agent>
        </dc:creator>
      </cc:Work>
    </rdf:RDF>
  </metadata>
  <g
     inkscape:groupmode="layer"
     id="layer2"
     inkscape:label="BG">
    <rect
       style="color:#000000;fill:#ffffff;fill-opacity:1;fill-rule:nonzero;stroke:none;stroke-width:1;marker:none;visibility:visible;display:inline;overflow:visible;enable-background:accumulate"
       id="rect3768"
       width="1200"
       height="675"
       x="0"
       y="0" />
  </g>
  <g
     inkscape:label="Layer 1"
     inkscape:groupmode="layer"
     id="layer1"
     transform="translate(170.5,-163.36218)">
    <g
       transform="matrix(0.6557519,0,0,0.6557519,-230.05852,145.62843)"
       style="display:inline"
       id="g3948">
      <path
         sodipodi:nodetypes="cccccccccc"
         style="fill:#ffffff;stroke:none;display:inline"
         id="path2815"
         d="m 124.41046,55.493862 c 5.30318,0 10.61688,-0.312033 15.84788,0.184996 9.05025,1.309451 16.40535,7.365474 26.63228,7.47488 6.70357,-0.109406 11.47662,-2.110032 16.71814,-4.576629 9.06474,-4.378207 22.06808,-2.811224 31.91855,-3.119052 -10.77395,4.001754 -16.73655,9.347705 -22.47139,15.699189 -7.43609,4.046712 -15.54469,8.003508 -25.85748,8.003508 -9.54264,0 -12.95036,-3.713678 -21.48257,-6.173748 -8.69228,-2.36055 -13.63372,-1.521932 -21.30541,-1.521932 0,-5.303183 0,-10.66803 0,-15.971212 z"
         inkscape:connector-curvature="0" />
      <path
         sodipodi:nodetypes="cccccccccccc"
         style="fill:#ffffff;stroke:none;display:inline"
         id="path2817"
         d="m 204.57484,65.083794 c 7.76978,-6.41315 17.77043,-9.003077 27.57514,-9.619724 0,5.303181 0.0617,10.703833 0,16.007016 -13.50461,0.184996 -26.28018,10.077239 -29.11677,23.458524 -3.14491,11.83966 2.28161,25.28261 12.64132,31.75742 9.68138,6.72148 23.61765,6.78314 33.29904,0 8.75641,-5.30318 13.28082,-15.55198 13.95913,-25.35671 5.23307,0 10.09018,0.0741 15.20837,0.0741 0.67831,18.86946 -11.95297,37.52221 -29.96914,43.53543 -13.86715,5.02718 -31.8191,2.95991 -44.02875,-6.78315 -15.72455,-11.593 -21.76771,-34.03902 -15.04624,-52.230167 3.14491,-8.201433 8.38643,-15.662885 15.4779,-20.842739 z"
         inkscape:connector-curvature="0" />
      <path
         sodipodi:nodetypes="ccccc"
         style="fill:#ffffff;stroke:none;display:inline"
         id="path2819"
         d="m 235.84391,55.46407 c 40.94102,0 80.09294,0 117.89783,0 -2.77044,5.54089 -5.35192,10.765498 -8.00351,16.007016 -39.0989,0 -72.02657,0 -109.89432,0 0,-5.364848 0,-10.642169 0,-16.007016 z"
         inkscape:connector-curvature="0" />
      <path
         sodipodi:nodetypes="ccccccccc"
         style="fill:#ffffff;stroke:none;display:inline"
         id="path2821"
         d="m 312.18507,147.50441 c 15.23122,-30.77079 29.85923,-60.334136 45.55842,-92.04034 15.53956,30.647457 30.78273,61.25762 46.17409,92.04034 -23.39487,0 -45.45946,0.0617 -68.64547,0 2.46659,-5.36485 5.04409,-10.70384 7.69568,-16.00702 11.08177,0 21.85573,0 33.24534,0 -6.10482,-13.38128 -12.29618,-26.7014 -18.46267,-40.021017 -8.81808,18.684467 -17.55312,37.250577 -26.48011,56.028037 -6.6598,0 -12.48714,0.0617 -19.08528,0 z"
         inkscape:connector-curvature="0" />
      <path
         sodipodi:nodetypes="ccccc"
         style="fill:#ffffff;stroke:none;display:inline"
         id="path2823"
         d="m 361.74525,55.46407 c 12.00526,0 25.54966,0 37.24709,0 -8.31133,4.617408 -13.36934,9.619724 -16.02093,16.21787 -4.7482,0.06167 -8.2283,0.03531 -12.91483,0.09697 -3.07827,-5.848718 -5.54089,-10.773953 -8.31133,-16.314843 z"
         inkscape:connector-curvature="0" />
      <path
         sodipodi:nodetypes="ccccccccc"
         style="fill:#ffffff;stroke:none;display:inline"
         id="path2825"
         d="m 388.33625,68.105376 c 4.68654,-7.89311 13.81295,-12.209652 22.81602,-12.517975 0,5.241516 0,10.483032 -0.0617,15.786215 -4.25488,0.678312 -8.81808,3.021578 -10.42137,7.276458 -1.17164,3.884889 -0.73998,8.386427 1.97327,11.531335 2.40494,2.096608 5.33351,3.205582 8.3551,4.068891 0.12333,5.241519 -0.0617,10.14984 0,15.39136 -6.16649,-1.0483 -12.67164,-1.51576 -17.23484,-6.2023 -10.35971,-8.201423 -12.88797,-24.480961 -5.42652,-35.333984 z"
         inkscape:connector-curvature="0" />
      <path
         sodipodi:nodetypes="cccccccccc"
         style="fill:#ffffff;stroke:none;display:inline"
         id="path2827"
         d="m 414.85117,55.772394 c 11.28468,0.06166 22.63102,-0.246659 33.9157,0.06166 8.75642,0.49332 15.90954,7.0298 24.66596,7.276458 5.73484,0.616651 11.59301,-0.369989 16.77285,-2.959917 5.17986,-2.528257 10.79136,-4.069879 16.52618,-4.563199 0,5.303182 0,10.606364 -0.0617,15.909542 -11.09969,0.06166 -20.10276,8.879748 -31.38744,7.76978 -8.87975,0.616649 -15.78621,-5.981497 -24.29597,-7.091464 -12.02466,-0.863309 -24.29001,-0.704173 -36.29528,-0.704173 0,-5.364848 0.15964,-10.333845 0.15964,-15.698692 z"
         inkscape:connector-curvature="0" />
      <path
         sodipodi:nodetypes="ccccc"
         style="fill:#ffffff;stroke:none;display:inline"
         id="path2829"
         d="m 286.01975,75.165012 c 5.11818,0 9.59585,0 14.77571,0 0,9.542644 0,62.488928 0,72.339398 -5.23307,0 -9.65753,0 -14.77571,0 0,-8.61917 0,-62.796754 0,-72.339398 z"
         inkscape:connector-curvature="0" />
      <path
         sodipodi:nodetypes="ccccccccc"
         style="fill:#ffffff;stroke:none;display:inline"
         id="path2831"
         d="m 124.41046,94.2503 c 5.30318,0 10.59967,-0.07321 15.84788,0.184993 9.24974,0.91049 16.71938,7.276457 26.7009,7.276457 5.83817,0 10.66264,-2.087498 15.90416,-4.122443 -0.62204,5.578813 -0.0569,10.404873 1.17439,15.637943 -5.67317,2.77491 -8.00221,4.45571 -17.0152,4.45571 -8.99363,-0.0378 -11.28396,-1.12191 -21.10723,-5.41361 -7.06956,-2.64955 -15.83173,-1.98617 -21.5049,-2.04784 0,-5.30318 0,-10.668028 0,-15.97121 z"
         inkscape:connector-curvature="0" />
      <path
         sodipodi:nodetypes="ccccccccc"
         style="fill:#ffffff;stroke:none;display:inline"
         id="path2833"
         d="m 414.99936,94.2503 c 12.62092,0 25.07276,8.63408 26.86104,21.39872 3.02158,12.94962 -5.48818,27.25588 -18.31448,30.83245 -2.83658,0.73997 -4.85264,1.02294 -8.85439,1.02294 0,-5.23307 0,-10.46613 0,-16.00702 3.94655,-0.67831 8.60774,-1.78878 10.58101,-5.48867 1.60329,-3.63823 2.03494,-8.32477 -0.73998,-11.46967 -2.15827,-3.20658 -5.83928,-4.28173 -9.5332,-4.89739 0,-5.23306 0,-10.158295 0,-15.39136 z"
         inkscape:connector-curvature="0" />
      <path
         sodipodi:nodetypes="cccccccccccc"
         style="fill:#ffffff;stroke:none;display:inline"
         id="path2835"
         d="m 429.77506,94.2503 c 7.09147,0 14.08696,-0.370489 21.24008,0.307827 5.54984,0.431655 10.20804,3.639722 15.44956,5.24301 5.6115,2.158273 11.83966,1.973273 17.69782,0.616643 4.62487,-1.048299 8.70967,-3.702878 13.33454,-4.936173 3.02157,-0.73998 6.08991,-0.922983 9.2348,-1.231307 0,5.241513 0.0617,10.39601 0,15.69919 -4.80987,0.61665 -9.78184,1.1045 -14.16004,3.3861 -7.39979,3.69988 -16.05574,5.15001 -24.19551,3.0534 -4.00822,-0.98664 -7.3814,-2.80475 -11.20462,-4.28471 -4.31654,-1.41829 -8.36554,-2.03146 -12.92875,-2.15479 -3.16263,-7.32115 -7.23459,-12.060959 -14.46788,-15.69919 z"
         inkscape:connector-curvature="0" />
      <path
         sodipodi:nodetypes="ccccccc"
         style="fill:#ffffff;stroke:none;display:inline"
         id="path2837"
         d="m 206.50632,95.228833 c 6.25175,0.872409 10.49585,4.813577 18.12949,5.306887 11.87538,1.16711 22.76331,0.54795 34.60297,0.7946 -0.43165,5.67318 -2.14982,11.19716 -5.23306,16.00702 -9.31141,-0.0617 -19.58947,0.89758 -29.62532,-0.6599 -7.31728,-1.03516 -11.09633,-4.90589 -17.49498,-6.38417 -2.06021,-6.27701 -2.06393,-10.720593 -0.3791,-15.064437 z"
         inkscape:connector-curvature="0" />
      <path
         sodipodi:nodetypes="cccccccccc"
         style="fill:#ffffff;stroke:none;display:inline"
         id="path2839"
         d="m 124.41046,131.62023 c 5.30318,0 10.61246,-0.26312 15.84789,0.18499 8.95051,1.20971 17.01376,7.27646 26.7009,7.27646 9.3882,0 16.40286,-5.85817 25.15927,-6.84481 5.49497,6.72805 11.51551,11.42645 20.65775,15.35457 -6.47482,0.0617 -14.96645,-0.0685 -21.29586,1.08259 -8.60221,2.02796 -10.79896,6.37886 -23.46915,6.37886 -9.48225,0 -14.44053,-2.40833 -22.52183,-5.23781 -6.61492,-2.03706 -12.44308,-2.22364 -21.07897,-2.22364 0,-5.30319 0,-10.66803 0,-15.97121 z"
         inkscape:connector-curvature="0" />
      <path
         sodipodi:nodetypes="ccccc"
         style="fill:#ffffff;stroke:none;display:inline"
         id="path2841"
         d="m 271.55187,131.80522 c 3.63823,-0.0617 7.13572,0 10.77395,0 0,5.30318 0,10.33434 0,15.69919 -10.5447,0 -21.1426,0.21035 -31.62564,0.0253 9.15425,-4.02711 15.61862,-8.64452 20.85169,-15.72455 z"
         inkscape:connector-curvature="0" />
      <path
         sodipodi:nodetypes="ccccc"
         style="fill:#ffffff;stroke:none;display:inline"
         id="path2843"
         d="m 304.48938,131.49739 c 4.00822,0 7.38785,0 11.69744,0 -1.84897,3.81726 -5.54089,10.77395 -8.00351,16.00702 -1.10996,0 -2.64562,0 -3.69393,0 0,-5.54089 0,-10.77395 0,-16.00702 z"
         inkscape:connector-curvature="0" />
      <path
         sodipodi:nodetypes="ccccc"
         style="fill:#ffffff;stroke:none;display:inline"
         id="path2845"
         d="m 399.91583,131.49739 c 4.6174,0 7.07356,0 11.08178,0 0,5.36484 0,10.64217 0,16.00702 -1.23131,0 -2.02997,0.0617 -3.07828,0 -2.71325,-5.17986 -5.23306,-10.1583 -8.0035,-16.00702 z"
         inkscape:connector-curvature="0" />
      <path
         sodipodi:nodetypes="ccccccccccc"
         style="fill:#ffffff;stroke:none;display:inline"
         id="path2847"
         d="m 443.93512,131.49739 c 5.7965,0.185 11.30657,1.2328 16.54808,3.88439 7.0298,3.39157 15.23123,5.42652 22.93934,3.20658 4.19322,-0.98664 7.89311,-3.32991 11.963,-4.68654 3.69989,-1.17163 7.52312,-1.72611 11.34632,-2.40443 0,5.30319 0.0617,10.70384 0,16.00702 -4.13155,0.55498 -8.38641,0.95033 -12.20963,2.73862 -5.73484,2.95991 -11.80088,4.64923 -18.57308,4.64923 -6.46437,0 -12.32104,-2.05931 -17.99421,-4.64923 -8.94141,-3.94656 -19.25288,-2.43079 -28.4877,-2.73862 8.20294,-4.32579 11.3669,-8.13936 14.46788,-16.00702 z"
         inkscape:connector-curvature="0" />
    </g>
    <path
       style="fill:#15afb0;fill-opacity:1;stroke:none"
       d="m 886.1196,163.36218 -1056.6196,0 0,134.56839 z"
       id="path2998"
       inkscape:connector-curvature="0"
       sodipodi:nodetypes="cccc" />
    <path
       style="fill:#0281af;fill-opacity:1;stroke:none"
       d="m -170.5,528.83991 181.571204,-365.47773 -181.571204,0 z"
       id="path2996"
       inkscape:connector-curvature="0"
       sodipodi:nodetypes="cccc" />
    <path
       style="fill:#0b96af;fill-opacity:1;stroke:none"
       d="M 0 0 L 0 134.5625 L 122.46875 118.96875 L 181.5625 0 L 0 0 z "
       transform="translate(-170.5,163.36218)"
       id="path2998-4" />
  </g>
</svg>
